Input #0, lavfi, from 'rgbtestsrc=duration=60:size=1920x1080:rate=30':
  Duration: N/A, start: 0.000000, bitrate: N/A
  Stream #0:0: Video: rawvideo (RGBA / 0x41424752), rgba, 1920x1080 [SAR 1:1 DAR 16:9], 30 tbr, 30 tbn, 30 tbc
Stream mapping:
  Stream #0:0 -> #0:0 (rawvideo (native) -> h264 (h264_nvenc))
Press [q] to stop, [?] for help
Output #0, mp4, to './test_results/temp_tests_gpu/test_test_50_37/output.mp4':
  Metadata:
    encoder         : Lavf58.76.100
  Stream #0:0: Video: h264 (Main) (avc1 / 0x31637661), rgb0(pc, gbr/unknown/unknown, progressive), 1280x720 [SAR 1:1 DAR 16:9], q=2-31, 30 fps, 15360 tbn
    Metadata:
      encoder         : Lavc58.134.100 h264_nvenc
    Side data:
      cpb: bitrate max/min/avg: 3000000/0/0 buffer size: 4000000 vbv_delay: N/A
frame=    1 fps=0.0 q=0.0 size=       0kB time=00:00:00.00 bitrate=N/A speed=N/A    frame=    2 fps=0.4 q=0.0 size=       0kB time=00:00:00.00 bitrate=N/A speed=   0x    frame=   16 fps=2.9 q=23.0 size=       0kB time=00:00:00.43 bitrate=   0.9kbits/s speed=0.0795x    frame=   32 fps=5.4 q=23.0 size=       0kB time=00:00:00.96 bitrate=   0.4kbits/s speed=0.162x    frame=   49 fps=7.6 q=23.0 size=       0kB time=00:00:01.53 bitrate=   0.3kbits/s speed=0.237x    frame=   66 fps=9.4 q=23.0 size=       0kB time=00:00:02.10 bitrate=   0.2kbits/s speed= 0.3x    frame=   82 fps= 11 q=23.0 size=       0kB time=00:00:02.63 bitrate=   0.1kbits/s speed=0.351x    frame=   98 fps= 12 q=23.0 size=       0kB time=00:00:03.16 bitrate=   0.1kbits/s speed=0.395x    frame=  115 fps= 13 q=23.0 size=       0kB time=00:00:03.73 bitrate=   0.1kbits/s speed=0.437x    frame=  130 fps= 14 q=23.0 size=       0kB time=00:00:04.23 bitrate=   0.1kbits/s speed=0.468x    frame=  144 fps= 15 q=23.0 size=       0kB time=00:00:04.70 bitrate=   0.1kbits/s speed=0.492x    frame=  157 fps= 16 q=23.0 size=       0kB time=00:00:05.13 bitrate=   0.1kbits/s speed=0.51x    frame=  169 fps= 16 q=23.0 size=       0kB time=00:00:05.53 bitrate=   0.1kbits/s speed=0.523x    frame=  182 fps= 16 q=23.0 size=       0kB time=00:00:05.96 bitrate=   0.1kbits/s speed=0.539x    frame=  196 fps= 17 q=23.0 size=       0kB time=00:00:06.43 bitrate=   0.1kbits/s speed=0.555x    frame=  210 fps= 17 q=23.0 size=       0kB time=00:00:06.90 bitrate=   0.1kbits/s speed=0.571x    frame=  225 fps= 18 q=23.0 size=       0kB time=00:00:07.40 bitrate=   0.1kbits/s speed=0.587x    frame=  240 fps= 18 q=23.0 size=       0kB time=00:00:07.90 bitrate=   0.0kbits/s speed=0.602x    frame=  256 fps= 19 q=23.0 size=       0kB time=00:00:08.43 bitrate=   0.0kbits/s speed=0.617x    frame=  272 fps= 19 q=23.0 size=       0kB time=00:00:08.96 bitrate=   0.0kbits/s speed=0.632x    frame=  288 fps= 20 q=23.0 size=       0kB time=00:00:09.50 bitrate=   0.0kbits/s speed=0.646x    frame=  306 fps= 20 q=23.0 size=       0kB time=00:00:10.10 bitrate=   0.0kbits/s speed=0.662x    frame=  323 fps= 21 q=23.0 size=       0kB time=00:00:10.66 bitrate=   0.0kbits/s speed=0.677x    frame=  342 fps= 21 q=23.0 size=       0kB time=00:00:11.30 bitrate=   0.0kbits/s speed=0.695x    frame=  362 fps= 22 q=23.0 size=       0kB time=00:00:11.96 bitrate=   0.0kbits/s speed=0.713x    frame=  382 fps= 22 q=23.0 size=       0kB time=00:00:12.63 bitrate=   0.0kbits/s speed=0.73x    frame=  401 fps= 23 q=23.0 size=       0kB time=00:00:13.26 bitrate=   0.0kbits/s speed=0.745x    frame=  420 fps= 23 q=23.0 size=       0kB time=00:00:13.90 bitrate=   0.0kbits/s speed=0.758x    frame=  439 fps= 23 q=23.0 size=       0kB time=00:00:14.53 bitrate=   0.0kbits/s speed=0.771x    frame=  458 fps= 24 q=23.0 size=       0kB time=00:00:15.16 bitrate=   0.0kbits/s speed=0.783x    frame=  477 fps= 24 q=23.0 size=       0kB time=00:00:15.80 bitrate=   0.0kbits/s speed=0.795x    frame=  496 fps= 24 q=23.0 size=       0kB time=00:00:16.43 bitrate=   0.0kbits/s speed=0.806x    frame=  513 fps= 25 q=23.0 size=       0kB time=00:00:17.00 bitrate=   0.0kbits/s speed=0.813x    frame=  531 fps= 25 q=23.0 size=       0kB time=00:00:17.60 bitrate=   0.0kbits/s speed=0.822x    frame=  549 fps= 25 q=23.0 size=       0kB time=00:00:18.20 bitrate=   0.0kbits/s speed=0.83x    frame=  567 fps= 25 q=23.0 size=       0kB time=00:00:18.80 bitrate=   0.0kbits/s speed=0.837x    frame=  586 fps= 25 q=23.0 size=       0kB time=00:00:19.43 bitrate=   0.0kbits/s speed=0.845x    frame=  605 fps= 26 q=23.0 size=       0kB time=00:00:20.06 bitrate=   0.0kbits/s speed=0.853x    frame=  624 fps= 26 q=23.0 size=       0kB time=00:00:20.70 bitrate=   0.0kbits/s speed=0.861x    frame=  642 fps= 26 q=23.0 size=       0kB time=00:00:21.30 bitrate=   0.0kbits/s speed=0.868x    frame=  661 fps= 26 q=23.0 size=       0kB time=00:00:21.93 bitrate=   0.0kbits/s speed=0.875x    frame=  680 fps= 27 q=23.0 size=       0kB time=00:00:22.56 bitrate=   0.0kbits/s speed=0.882x    frame=  699 fps= 27 q=23.0 size=       0kB time=00:00:23.20 bitrate=   0.0kbits/s speed=0.889x    frame=  718 fps= 27 q=23.0 size=       0kB time=00:00:23.83 bitrate=   0.0kbits/s speed=0.896x    frame=  737 fps= 27 q=23.0 size=       0kB time=00:00:24.46 bitrate=   0.0kbits/s speed=0.902x    frame=  755 fps= 27 q=23.0 size=       0kB time=00:00:25.06 bitrate=   0.0kbits/s speed=0.907x    frame=  774 fps= 28 q=23.0 size=       0kB time=00:00:25.70 bitrate=   0.0kbits/s speed=0.913x    frame=  793 fps= 28 q=23.0 size=       0kB time=00:00:26.33 bitrate=   0.0kbits/s speed=0.919x    frame=  812 fps= 28 q=23.0 size=       0kB time=00:00:26.96 bitrate=   0.0kbits/s speed=0.925x    frame=  831 fps= 28 q=23.0 size=       0kB time=00:00:27.60 bitrate=   0.0kbits/s speed=0.93x    frame=  850 fps= 28 q=23.0 size=       0kB time=00:00:28.23 bitrate=   0.0kbits/s speed=0.935x    frame=  870 fps= 28 q=23.0 size=       0kB time=00:00:28.90 bitrate=   0.0kbits/s speed=0.941x    frame=  890 fps= 28 q=23.0 size=       0kB time=00:00:29.56 bitrate=   0.0kbits/s speed=0.947x    frame=  910 fps= 29 q=23.0 size=       0kB time=00:00:30.23 bitrate=   0.0kbits/s speed=0.952x    frame=  930 fps= 29 q=23.0 size=       0kB time=00:00:30.90 bitrate=   0.0kbits/s speed=0.957x    frame=  950 fps= 29 q=23.0 size=       0kB time=00:00:31.56 bitrate=   0.0kbits/s speed=0.963x    frame=  970 fps= 29 q=23.0 size=       0kB time=00:00:32.23 bitrate=   0.0kbits/s speed=0.968x    frame=  990 fps= 29 q=23.0 size=       0kB time=00:00:32.90 bitrate=   0.0kbits/s speed=0.973x    frame= 1010 fps= 29 q=23.0 size=       0kB time=00:00:33.56 bitrate=   0.0kbits/s speed=0.977x    frame= 1028 fps= 29 q=23.0 size=       0kB time=00:00:34.16 bitrate=   0.0kbits/s speed=0.98x    frame= 1046 fps= 30 q=23.0 size=       0kB time=00:00:34.76 bitrate=   0.0kbits/s speed=0.983x    frame= 1063 fps= 30 q=23.0 size=       0kB time=00:00:35.33 bitrate=   0.0kbits/s speed=0.985x    frame= 1076 fps= 30 q=23.0 size=       0kB time=00:00:35.76 bitrate=   0.0kbits/s speed=0.983x    frame= 1095 fps= 30 q=23.0 size=       0kB time=00:00:36.40 bitrate=   0.0kbits/s speed=0.986x    frame= 1114 fps= 30 q=23.0 size=       0kB time=00:00:37.03 bitrate=   0.0kbits/s speed=0.989x    frame= 1133 fps= 30 q=23.0 size=       0kB time=00:00:37.66 bitrate=   0.0kbits/s speed=0.992x    frame= 1152 fps= 30 q=23.0 size=       0kB time=00:00:38.30 bitrate=   0.0kbits/s speed=0.995x    frame= 1171 fps= 30 q=23.0 size=       0kB time=00:00:38.93 bitrate=   0.0kbits/s speed=0.998x    frame= 1189 fps= 30 q=23.0 size=       0kB time=00:00:39.53 bitrate=   0.0kbits/s speed=   1x    frame= 1207 fps= 30 q=23.0 size=       0kB time=00:00:40.13 bitrate=   0.0kbits/s speed=   1x    frame= 1224 fps= 30 q=23.0 size=       0kB time=00:00:40.70 bitrate=   0.0kbits/s speed=   1x    frame= 1243 fps= 30 q=23.0 size=       0kB time=00:00:41.33 bitrate=   0.0kbits/s speed=1.01x    frame= 1262 fps= 30 q=23.0 size=       0kB time=00:00:41.96 bitrate=   0.0kbits/s speed=1.01x    frame= 1281 fps= 30 q=23.0 size=       0kB time=00:00:42.60 bitrate=   0.0kbits/s speed=1.01x    frame= 1300 fps= 31 q=23.0 size=       0kB time=00:00:43.23 bitrate=   0.0kbits/s speed=1.02x    frame= 1319 fps= 31 q=23.0 size=       0kB time=00:00:43.86 bitrate=   0.0kbits/s speed=1.02x    frame= 1338 fps= 31 q=23.0 size=       0kB time=00:00:44.50 bitrate=   0.0kbits/s speed=1.02x    frame= 1357 fps= 31 q=23.0 size=       0kB time=00:00:45.13 bitrate=   0.0kbits/s speed=1.02x    frame= 1376 fps= 31 q=23.0 size=       0kB time=00:00:45.76 bitrate=   0.0kbits/s speed=1.02x    frame= 1395 fps= 31 q=23.0 size=       0kB time=00:00:46.40 bitrate=   0.0kbits/s speed=1.03x    frame= 1414 fps= 31 q=23.0 size=       0kB time=00:00:47.03 bitrate=   0.0kbits/s speed=1.03x    frame= 1433 fps= 31 q=23.0 size=       0kB time=00:00:47.66 bitrate=   0.0kbits/s speed=1.03x    frame= 1452 fps= 31 q=23.0 size=       0kB time=00:00:48.30 bitrate=   0.0kbits/s speed=1.03x    frame= 1471 fps= 31 q=23.0 size=       0kB time=00:00:48.93 bitrate=   0.0kbits/s speed=1.04x    frame= 1490 fps= 31 q=23.0 size=       0kB time=00:00:49.56 bitrate=   0.0kbits/s speed=1.04x    frame= 1509 fps= 31 q=23.0 size=       0kB time=00:00:50.20 bitrate=   0.0kbits/s speed=1.04x    frame= 1528 fps= 31 q=23.0 size=       0kB time=00:00:50.83 bitrate=   0.0kbits/s speed=1.04x    frame= 1547 fps= 31 q=23.0 size=       0kB time=00:00:51.46 bitrate=   0.0kbits/s speed=1.04x    frame= 1566 fps= 31 q=23.0 size=       0kB time=00:00:52.10 bitrate=   0.0kbits/s speed=1.05x    frame= 1585 fps= 31 q=23.0 size=       0kB time=00:00:52.73 bitrate=   0.0kbits/s speed=1.05x    frame= 1604 fps= 32 q=23.0 size=       0kB time=00:00:53.36 bitrate=   0.0kbits/s speed=1.05x    frame= 1623 fps= 32 q=19.0 size=       0kB time=00:00:54.00 bitrate=   0.0kbits/s speed=1.05x    frame= 1642 fps= 32 q=23.0 size=       0kB time=00:00:54.63 bitrate=   0.0kbits/s speed=1.05x    frame= 1661 fps= 32 q=23.0 size=       0kB time=00:00:55.26 bitrate=   0.0kbits/s speed=1.06x    frame= 1680 fps= 32 q=23.0 size=       0kB time=00:00:55.90 bitrate=   0.0kbits/s speed=1.06x    frame= 1699 fps= 32 q=23.0 size=       0kB time=00:00:56.53 bitrate=   0.0kbits/s speed=1.06x    frame= 1718 fps= 32 q=23.0 size=       0kB time=00:00:57.16 bitrate=   0.0kbits/s speed=1.06x    frame= 1737 fps= 32 q=23.0 size=       0kB time=00:00:57.80 bitrate=   0.0kbits/s speed=1.06x    frame= 1756 fps= 32 q=23.0 size=       0kB time=00:00:58.43 bitrate=   0.0kbits/s speed=1.06x    frame= 1775 fps= 32 q=23.0 size=       0kB time=00:00:59.06 bitrate=   0.0kbits/s speed=1.07x    frame= 1794 fps= 32 q=23.0 size=       0kB time=00:00:59.70 bitrate=   0.0kbits/s speed=1.07x    [mp4 @ 0x62fa749a76c0] Starting second pass: moving the moov atom to the beginning of the file
frame= 1800 fps= 32 q=23.0 Lsize=     159kB time=00:00:59.96 bitrate=  21.7kbits/s speed=1.07x    
video:151kB audio:0kB subtitle:0kB other streams:0kB global headers:0kB muxing overhead: 5.300566%
